<svg xmlns="http://www.w3.org/2000/svg" width="104" height="24" fill="none"><path fill="#000" d="M29.572 19.343V3.621h9.562v3.043h-5.94v4.226h5.94v3.001h-5.94v5.452h-3.622zm11.963 0V8.523h3.412v2.24c.168-.76.548-1.394 1.095-1.817a2.984 2.984 0 0 1 1.854-.633c.337 0 .674.042.884.084v3.212c-.421-.042-.758-.085-1.01-.085-1.896 0-2.823 1.226-2.823 3.593V19.3h-3.412v.042zm13.143.253c-1.559 0-2.822-.55-3.707-1.606-.927-1.057-1.348-2.452-1.348-4.1 0-1.648.463-3 1.39-4.1.927-1.056 2.19-1.605 3.707-1.605.758 0 1.432.169 2.022.507.59.338 1.053.76 1.348 1.352V8.48h3.41V19.3h-3.41v-1.522c-.295.55-.759.972-1.39 1.31-.59.38-1.264.508-2.022.508zm.969-2.832c.8 0 1.474-.254 1.895-.803.421-.55.674-1.226.674-2.029 0-.803-.21-1.479-.674-2.028-.463-.55-1.095-.803-1.895-.803-.759 0-1.39.253-1.854.803-.463.507-.716 1.225-.716 2.028 0 .846.253 1.522.716 2.071.464.507 1.095.761 1.854.761zm8.677 2.579V8.523h3.412v1.564a3.04 3.04 0 0 1 1.18-1.352c.547-.338 1.179-.507 1.895-.507 1.685 0 2.822.676 3.37 1.986a3.403 3.403 0 0 1 1.348-1.437c.632-.38 1.306-.55 2.064-.55 2.57 0 3.833 1.48 3.833 4.396v6.72h-3.454v-6.086c0-1.437-.548-2.113-1.6-2.113-1.222 0-1.812.887-1.812 2.662v5.579h-3.37v-6.17c0-1.395-.547-2.114-1.6-2.114-.59 0-1.054.212-1.348.592-.295.38-.464 1.099-.464 2.071v5.579h-3.454zm30.496-6.002c0 .465-.043.93-.085 1.522h-7.96c.041.718.252 1.268.715 1.648.464.38 1.053.592 1.811.592 1.053 0 1.727-.338 2.022-1.015h3.37c-.168 1.057-.758 1.945-1.727 2.578-1.01.677-2.19 1.015-3.622 1.015-1.854 0-3.286-.507-4.34-1.522-1.052-1.014-1.6-2.409-1.6-4.226 0-1.775.548-3.17 1.6-4.184 1.054-1.014 2.486-1.521 4.213-1.521 1.685 0 3.033.464 4.086 1.436.969.93 1.516 2.156 1.516 3.677zm-8.088-.634h4.675c0-.718-.21-1.268-.59-1.648-.378-.38-.926-.591-1.684-.591-.716 0-1.306.21-1.727.633-.421.423-.632.972-.674 1.606zm10.024 6.636V8.523h3.412v2.24c.168-.76.547-1.394 1.095-1.817a2.984 2.984 0 0 1 1.853-.633c.337 0 .674.042.885.084v3.212c-.421-.042-.758-.085-1.011-.085-1.896 0-2.822 1.226-2.822 3.593V19.3h-3.412v.042zM15.671.197v7.861H7.837L.002.198h15.67zM.002 8.058h7.835l7.834 7.861H7.837v7.861L.002 15.92V8.057z"/></svg>