<svg xmlns="http://www.w3.org/2000/svg" width="191" height="31" fill="none"><path fill="#000" fill-rule="evenodd" d="M20.623 0h-3.245v30.5h3.245V0zm74.155 0h-3.276v30.573h3.276V18.26c0-1.202.28-2.278.841-3.226a5.866 5.866 0 0 1 2.27-2.262c.979-.53 2.085-.795 3.318-.795 1.566 0 2.784.445 3.652 1.34.895.895 1.344 2.14 1.344 3.729v13.53h3.233v-13.99c0-2.486-.672-4.398-2.016-5.738-1.344-1.337-3.18-2.009-5.503-2.009-1.571 0-2.969.292-4.201.88a6.775 6.775 0 0 0-2.938 2.511V0zm27.237 30.534c-1.905 0-3.599-.403-5.081-1.213-1.486-.838-2.662-2.051-3.529-3.645-.841-1.62-1.26-3.602-1.26-5.948 0-2.347.407-4.244 1.217-5.949.811-1.705 1.974-3.003 3.487-3.894 1.54-.922 3.303-1.383 5.292-1.383 2.884 0 5.096.88 6.636 2.639s2.312 4.201 2.312 7.33c0 .642-.027 1.214-.084 1.717l-.085.795h-10.334c-1.959 0-3.641-.153-5.039-.46.085 2.315.699 4.047 1.848 5.192 1.175 1.144 2.757 1.716 4.746 1.716 1.598 0 2.869-.334 3.821-1.006.98-.699 1.498-1.647 1.556-2.85h3.11c0 1.368-.38 2.585-1.136 3.645-.757 1.06-1.794 1.886-3.107 2.47-1.291.556-2.746.836-4.367.836l-.003.008zm5.71-12.565c0-2.124-.476-3.714-1.429-4.774-.952-1.09-2.407-1.632-4.366-1.632-1.767 0-3.207.53-4.328 1.59-1.121 1.033-1.805 2.47-2.058 4.313 1.401.334 3.122.503 5.165.503h7.016zm9.907 11.686c1.371.587 2.926.88 4.662.88l-.004-.005c2.323 0 4.255-.556 5.795-1.674 1.54-1.118 2.312-2.723 2.312-4.816 0-1.225-.265-2.204-.799-2.93a4.61 4.61 0 0 0-1.974-1.674c-.814-.365-1.809-.684-2.984-.964l-.253-.085-2.435-.503-.169-.042c-1.121-.253-2.032-.603-2.731-1.048-.672-.477-1.006-1.23-1.006-2.262 0-.976.35-1.717 1.049-2.22.729-.53 1.666-.795 2.815-.795 1.094 0 2.046.223 2.857.668.81.446 1.398 1.06 1.762 1.844l2.731-1.717a6.512 6.512 0 0 0-1.847-2.135 7.802 7.802 0 0 0-2.435-1.256 9.678 9.678 0 0 0-2.899-.419c-2.155 0-3.921.542-5.292 1.633-1.371 1.09-2.059 2.626-2.059 4.608 0 1.37.308 2.458.926 3.268.618.81 1.344 1.394 2.185 1.759.864.365 1.889.672 3.064.922l2.689.587c1.09.253 1.931.614 2.519 1.09.618.446.925 1.114.925 2.01 0 1.005-.376 1.789-1.132 2.346-.757.53-1.863.794-3.318.794-1.959 0-3.441-.445-4.451-1.34-1.007-.894-1.387-2.066-1.133-3.517h-3.234c-.223 1.674.016 3.11.715 4.312.725 1.171 1.778 2.066 3.149 2.68zm22.961.88c-2.27 0-4.09-.67-5.461-2.01-1.371-1.34-2.059-3.252-2.059-5.737V8.537h3.276V22.28c0 1.59.434 2.835 1.302 3.73.895.894 2.074 1.34 3.529 1.34 1.148 0 2.185-.265 3.111-.795a5.682 5.682 0 0 0 2.227-2.22c.561-.976.841-2.066.841-3.268V8.537h3.234V30.28h-3.192v-3.226c-.729 1.144-1.666 2.008-2.815 2.596-1.121.587-2.45.88-3.99.88l-.003.003zm12.473-21.99h3.276v3.602a6.752 6.752 0 0 1 2.937-2.512c1.233-.587 2.631-.88 4.202-.88 2.323 0 4.159.669 5.503 2.01 1.344 1.34 2.016 3.252 2.016 5.737v13.99h-3.234v-13.53c0-1.59-.445-2.834-1.344-3.728-.868-.895-2.085-1.34-3.656-1.34-1.232 0-2.338.264-3.318.794a5.861 5.861 0 0 0-2.269 2.262c-.561.949-.841 2.024-.841 3.226v12.312h-3.276V8.545h.004zM33.439 30.535c-2.02 0-3.775-.45-5.265-1.345-1.486-.922-2.639-2.208-3.453-3.86-.787-1.678-1.179-3.62-1.179-5.83 0-2.207.392-4.139 1.18-5.786.813-1.679 1.965-2.965 3.452-3.86 1.486-.922 3.24-1.382 5.265-1.382 2.024 0 3.817.46 5.307 1.382 1.486.895 2.627 2.181 3.41 3.86.788 1.65 1.18 3.579 1.18 5.787 0 2.208-.392 4.151-1.18 5.83-.787 1.65-1.924 2.937-3.41 3.859-1.486.895-3.257 1.344-5.307 1.344zm0-3.188c2.135 0 3.763-.684 4.885-2.055 1.121-1.37 1.686-3.299 1.686-5.787 0-2.489-.561-4.42-1.686-5.788-1.122-1.37-2.75-2.054-4.885-2.054-2.136 0-3.764.683-4.885 2.054-1.095 1.371-1.644 3.3-1.644 5.788 0 2.488.55 4.42 1.644 5.787 1.121 1.371 2.75 2.055 4.885 2.055zM4.532 11.732H0V8.748h4.532V7.066c0-2.27.572-4.005 1.72-5.211C7.427.622 9.021.004 11.037.004h3.568v2.984h-3.107c-1.287 0-2.24.307-2.854.925-.587.618-.879 1.582-.879 2.9v1.931h.922c1.79 0 3.594-.169 5.41-.503l.42 2.942c-1.736.365-3.733.545-6 .545h-.756v18.837h-3.23V11.732zM82.09 23.41c0 1.34.307 2.358.917 3.057.611.672 1.544 1.007 2.796 1.007H88.6v3.056h-3.257c-2.004 0-3.59-.599-4.758-1.8-1.14-1.199-1.713-2.946-1.713-5.235v-12.12H76.25c-.718 0-1.351.469-1.566 1.152l-5.434 18.03h-4.394l-5.23-18.191-5.273 18.191H49.96L43.22 8.545h3.556l5.4 18.36 5.273-18.36h4.312l5.273 18.36 4.37-15.146a4.746 4.746 0 0 1 4.562-3.368l2.907.012V.096h3.215V8.4h.96c1.697 0 3.41-.17 5.134-.503l.461 2.891c-1.751.392-3.66.588-5.718.588h-.833V23.41z" clip-rule="evenodd"/></svg>